<svg width="7" height="6" viewBox="0 0 7 6" fill="none" xmlns="http://www.w3.org/2000/svg">
<g clip-path="url(#clip0_157_30)">
<path d="M6.7724 1.43575L5.89419 0.41875C5.78619 0.289334 5.64376 0.183842 5.47871 0.111019C5.31366 0.0381961 5.13074 0.00013843 4.94511 4.40598e-07H2.05469C1.86996 -0.000148184 1.68782 0.0373062 1.52328 0.109281C1.35874 0.181256 1.21648 0.285694 1.10823 0.414001L0.214272 1.43825C0.0687196 1.61417 -0.00644833 1.82577 1.87276e-05 2.04137C0.00648579 2.25697 0.09424 2.46497 0.250147 2.63425L2.81448 5.71625C2.8962 5.80495 3.00036 5.87658 3.11909 5.92573C3.23783 5.97489 3.36804 6.00028 3.4999 6C3.63402 5.99977 3.76629 5.97317 3.88653 5.92224C4.00678 5.87132 4.11179 5.79742 4.19348 5.70625L6.7374 2.6585C6.90029 2.48675 6.99209 2.27352 6.99842 2.05225C7.00476 1.83097 6.92526 1.61414 6.7724 1.43575ZM5.42256 0.71275L6.30281 1.73225C6.30748 1.73775 6.30865 1.74425 6.31331 1.75H4.88648L4.46998 0.5H4.94511C5.03872 0.500249 5.1309 0.519691 5.21396 0.556701C5.29702 0.593712 5.36855 0.647217 5.42256 0.71275ZM3.4999 4.7795L2.7124 2.25H4.2874L3.4999 4.7795ZM2.71998 1.75L3.13648 0.5H3.86331L4.27981 1.75H2.71998ZM1.57985 0.70925C1.63397 0.644598 1.70526 0.591905 1.78782 0.555521C1.87038 0.519138 1.96185 0.500107 2.05469 0.5H2.52981L2.11331 1.75H0.67598C0.680063 1.7445 0.68123 1.73775 0.685897 1.7325L1.57985 0.70925ZM0.713897 2.33125C0.692837 2.30575 0.674764 2.27854 0.659938 2.25H2.10923L2.98248 5.0575L0.713897 2.33125ZM4.01644 5.06L4.89144 2.25H6.34569C6.3269 2.28732 6.30311 2.32264 6.27481 2.35525L4.01644 5.06Z" fill="white"/>
</g>
<defs>
<clipPath id="clip0_157_30">
<rect width="7" height="6" fill="white"/>
</clipPath>
</defs>
</svg>
