<svg width="20" height="20" viewBox="0 0 20 20" fill="none" xmlns="http://www.w3.org/2000/svg">
<g clip-path="url(#clip0_163_70)">
<path d="M5.83316 20C5.72349 20.0006 5.61477 19.9796 5.51324 19.9381C5.41171 19.8967 5.31936 19.8355 5.24149 19.7583C5.16339 19.6808 5.10139 19.5887 5.05908 19.4871C5.01678 19.3856 4.995 19.2767 4.995 19.1666C4.995 19.0566 5.01678 18.9477 5.05908 18.8462C5.10139 18.7446 5.16339 18.6525 5.24149 18.575L12.0498 11.7667C12.518 11.2979 12.781 10.6625 12.781 9.99999C12.781 9.33749 12.518 8.70208 12.0498 8.23333L5.24149 1.42501C5.08457 1.26809 4.99642 1.05526 4.99642 0.833339C4.99642 0.611421 5.08457 0.398593 5.24149 0.241673C5.39841 0.0847538 5.61124 -0.00340271 5.83316 -0.00340271C6.05508 -0.00340271 6.26791 0.0847538 6.42483 0.241673L13.2332 7.05C13.6212 7.43704 13.929 7.89684 14.1391 8.40305C14.3492 8.90926 14.4573 9.45193 14.4573 9.99999C14.4573 10.5481 14.3492 11.0907 14.1391 11.5969C13.929 12.1031 13.6212 12.5629 13.2332 12.95L6.42483 19.7583C6.34696 19.8355 6.25461 19.8967 6.15308 19.9381C6.05155 19.9796 5.94283 20.0006 5.83316 20Z" fill="#374957"/>
</g>
<defs>
<clipPath id="clip0_163_70">
<rect width="20" height="20" fill="white"/>
</clipPath>
</defs>
</svg>
