<svg width="24" height="24" viewBox="0 0 24 24" fill="none" xmlns="http://www.w3.org/2000/svg">
<path fill-rule="evenodd" clip-rule="evenodd" d="M20.0059 12C20.0059 11.4477 19.5554 11 18.9997 11H4.99974C4.44408 11 3.99363 11.4477 3.99363 12C3.99363 12.5523 4.44408 13 4.99974 13H18.9997C19.5554 13 20.0059 12.5523 20.0059 12Z" fill="white"/>
<path fill-rule="evenodd" clip-rule="evenodd" d="M11.2907 4.29074C10.8966 4.68007 10.8947 5.31323 11.2864 5.70495L17.5814 12L11.2864 18.2951C10.8947 18.6868 10.8966 19.3199 11.2907 19.7093C11.6848 20.0986 12.3219 20.0967 12.7136 19.7049L19.7136 12.7049C20.1036 12.3149 20.1036 11.6851 19.7136 11.2951L12.7136 4.29505C12.3219 3.90334 11.6848 3.90141 11.2907 4.29074Z" fill="white"/>
</svg>
