<svg width="34" height="35" viewBox="0 0 34 35" fill="none" xmlns="http://www.w3.org/2000/svg">
<path d="M30.8911 14.3865H29.75V14.3277H17V19.9944H25.0063C23.8383 23.2931 20.6996 25.6611 17 25.6611C12.3059 25.6611 8.5 21.8552 8.5 17.1611C8.5 12.467 12.3059 8.66107 17 8.66107C19.1668 8.66107 21.1381 9.47849 22.639 10.8137L26.6461 6.80666C24.1159 4.44862 20.7315 2.99441 17 2.99441C9.17646 2.99441 2.83334 9.33753 2.83334 17.1611C2.83334 24.9846 9.17646 31.3277 17 31.3277C24.8235 31.3277 31.1667 24.9846 31.1667 17.1611C31.1667 16.2112 31.0689 15.284 30.8911 14.3865Z" fill="#FFC107"/>
<path d="M4.46675 10.5672L9.12121 13.9807C10.3806 10.8626 13.4307 8.66107 17 8.66107C19.1668 8.66107 21.1381 9.47849 22.639 10.8137L26.6461 6.80666C24.1159 4.44862 20.7315 2.99441 17 2.99441C11.5586 2.99441 6.83967 6.06645 4.46675 10.5672Z" fill="#FF3D00"/>
<path d="M17 31.3277C20.6592 31.3277 23.9842 29.9274 26.498 27.6501L22.1134 23.9398C20.6911 25.0172 18.9231 25.6611 17 25.6611C13.3152 25.6611 10.1865 23.3115 9.00786 20.0327L4.38811 23.592C6.7327 28.1799 11.4941 31.3277 17 31.3277Z" fill="#4CAF50"/>
<path d="M30.8911 14.3865H29.75V14.3277H17V19.9944H25.0063C24.4453 21.5789 23.426 22.9453 22.1113 23.9405C22.112 23.9398 22.1128 23.9398 22.1135 23.9391L26.498 27.6494C26.1878 27.9313 31.1667 24.2444 31.1667 17.1611C31.1667 16.2112 31.0689 15.284 30.8911 14.3865Z" fill="#1976D2"/>
</svg>
