<svg width="174" height="48" viewBox="0 0 174 48" fill="none" xmlns="http://www.w3.org/2000/svg">
<path d="M23.541 23.0605C23.541 25.4368 23.1504 27.4469 22.3691 29.0908C21.5879 30.7347 20.4242 32.1833 18.8779 33.4365C17.8525 34.2503 16.6888 34.8688 15.3867 35.292C14.0846 35.7152 12.8639 35.943 11.7246 35.9756V47.1084H0.689453C0.689453 45.6273 0.689453 43.2591 0.689453 40.0039C0.689453 36.7487 0.689453 32.5739 0.689453 27.4795C0.689453 23.4919 0.689453 20.1553 0.689453 17.4697C0.689453 14.7842 0.689453 12.5706 0.689453 10.8291C1.21029 10.7965 1.9834 10.7721 3.00879 10.7559C4.03418 10.7233 4.9375 10.707 5.71875 10.707C7.47656 10.707 9.34017 10.8372 11.3096 11.0977C13.279 11.3581 15.0856 11.8545 16.7295 12.5869C18.9756 13.596 20.6683 15.0365 21.8076 16.9082C22.9632 18.7799 23.541 20.8307 23.541 23.0605ZM13.2383 23.7441C13.2383 22.9792 13.1895 22.2712 13.0918 21.6201C12.9941 20.9691 12.8477 20.3424 12.6523 19.7402C12.4896 19.4961 12.3024 19.2845 12.0908 19.1055C11.8955 18.9102 11.6595 18.8125 11.3828 18.8125C11.3177 18.8125 11.2689 18.8125 11.2363 18.8125C11.2038 18.8125 11.1549 18.8125 11.0898 18.8125C11.0898 18.9427 11.0898 19.5042 11.0898 20.4971C11.0898 21.4899 11.0898 22.6862 11.0898 24.0859C11.0898 25.5508 11.0898 26.682 11.0898 27.4795C11.0898 28.277 11.0898 28.9118 11.0898 29.3838C11.4479 29.3838 11.749 29.3268 11.9932 29.2129C12.2373 29.0827 12.4245 28.8792 12.5547 28.6025C12.7826 27.8701 12.9535 27.1702 13.0674 26.5029C13.1813 25.8193 13.2383 24.8997 13.2383 23.7441ZM45.3428 19.1543C43.6501 19.8379 42.2992 20.432 41.29 20.9365C40.2809 21.4248 38.515 22.3444 35.9922 23.6953C35.9922 24.5417 35.984 25.2578 35.9678 25.8438C35.9678 26.4297 35.9678 27.3249 35.9678 28.5293C35.9678 30.043 35.9678 31.4915 35.9678 32.875C35.984 34.2422 35.9922 35.2839 35.9922 36H24.9082C24.9082 34.9909 24.9082 33.168 24.9082 30.5312C24.9082 27.8783 24.9082 25.4857 24.9082 23.3535C24.9082 21.2376 24.9082 19.2764 24.9082 17.4697C24.9082 15.6631 24.9082 13.4577 24.9082 10.8535H35.7725L35.6748 14.4424L35.7969 14.4912C37.0176 13.2705 38.2383 12.237 39.459 11.3906C40.6797 10.528 41.526 9.97461 41.998 9.73047L45.3428 19.1543ZM55.6699 7.89941H44.4883V0.404297H55.6699V7.89941ZM55.5967 36H44.5615C44.5615 34.5677 44.5615 33.1191 44.5615 31.6543C44.5615 30.1895 44.5615 27.4958 44.5615 23.5732C44.5615 21.3109 44.5615 19.1055 44.5615 16.957C44.5615 14.8086 44.5615 12.7741 44.5615 10.8535H55.5967C55.5967 12.9531 55.5967 14.7923 55.5967 16.3711C55.5967 17.9336 55.5967 20.3994 55.5967 23.7686C55.5967 27.2516 55.5967 29.7337 55.5967 31.2148C55.5967 32.696 55.5967 34.291 55.5967 36ZM81.3779 11.4639C79.9619 16.2165 78.6273 20.8633 77.374 25.4043C76.1208 29.929 75.1849 33.4609 74.5664 36H62.9941C62.3105 33.4935 61.3503 29.986 60.1133 25.4775C58.8763 20.9691 57.5661 16.306 56.1826 11.4883L67.6816 10.4141L68.7803 22.0107H69.1221L70.1963 10.3652L81.3779 11.4639ZM102.691 23.8906C102.691 26.3809 102.691 28.7897 102.691 31.1172C102.708 33.4447 102.716 35.0641 102.716 35.9756C102.13 36.057 100.917 36.1465 99.0781 36.2441C97.2389 36.3418 95.8066 36.3906 94.7812 36.3906C93.5117 36.3906 91.9248 36.2767 90.0205 36.0488C88.1162 35.821 86.5293 35.3978 85.2598 34.7793C83.86 34.112 82.8184 33.2412 82.1348 32.167C81.4512 31.0765 81.1094 29.8965 81.1094 28.627C81.1094 27.1458 81.4186 25.9007 82.0371 24.8916C82.6556 23.8825 83.7949 23.0036 85.4551 22.2549C86.5781 21.7503 87.7256 21.3923 88.8975 21.1807C90.0693 20.9528 90.9564 20.7819 91.5586 20.668C91.5586 20.1471 91.4854 19.7321 91.3389 19.4229C91.1924 19.1136 90.8913 18.8288 90.4355 18.5684C90.0938 18.3568 89.5729 18.2103 88.873 18.1289C88.1895 18.0475 87.4082 18.0068 86.5293 18.0068C85.6667 18.0068 85.0075 18.015 84.5518 18.0312C84.096 18.0312 83.6077 18.0312 83.0869 18.0312L83.9902 10.5117C84.3646 10.5117 84.6982 10.5117 84.9912 10.5117C85.3005 10.5117 85.8457 10.5117 86.627 10.5117C90.11 10.5117 92.82 10.8291 94.7568 11.4639C96.71 12.0824 98.3538 13.0833 99.6885 14.4668C100.893 15.6875 101.69 17.0547 102.081 18.5684C102.488 20.0658 102.691 21.8398 102.691 23.8906ZM92.3398 27.3818C92.3398 26.6331 92.3398 26.0391 92.3398 25.5996C92.3398 25.1602 92.3398 24.7288 92.3398 24.3057C92.1283 24.3219 91.9004 24.3789 91.6562 24.4766C91.4284 24.5742 91.2249 24.7533 91.0459 25.0137C90.932 25.2415 90.8262 25.5671 90.7285 25.9902C90.6309 26.4134 90.582 26.861 90.582 27.333C90.582 27.8376 90.6227 28.277 90.7041 28.6514C90.8018 29.0257 90.9157 29.3757 91.0459 29.7012C91.1436 29.8802 91.2656 30.0348 91.4121 30.165C91.5586 30.2952 91.7539 30.3604 91.998 30.3604C92.0632 30.3604 92.1283 30.3604 92.1934 30.3604C92.2585 30.3604 92.3073 30.3604 92.3398 30.3604C92.3398 29.9535 92.3398 29.4896 92.3398 28.9688C92.3398 28.4316 92.3398 27.9027 92.3398 27.3818ZM121.954 27.8213L120.758 36.3662C120.481 36.3825 120.318 36.3825 120.27 36.3662C120.221 36.3662 120.042 36.3662 119.732 36.3662C116.591 36.3662 114.052 36 112.115 35.2676C110.178 34.5189 108.551 33.5179 107.232 32.2646C106.191 31.3044 105.369 30.0837 104.767 28.6025C104.164 27.1051 103.863 25.4531 103.863 23.6465C103.863 21.7096 104.189 19.96 104.84 18.3975C105.491 16.8187 106.492 15.4515 107.843 14.2959C109.308 13.0752 111.033 12.1556 113.019 11.5371C115.004 10.9023 117.226 10.585 119.684 10.585C119.928 10.585 120.107 10.585 120.221 10.585C120.335 10.585 120.457 10.585 120.587 10.585L121.808 19.1055C121.661 19.1055 121.515 19.1055 121.368 19.1055C121.238 19.1055 121.108 19.1055 120.978 19.1055C120.652 19.1055 120.196 19.1624 119.61 19.2764C119.024 19.374 118.463 19.5449 117.926 19.7891C117.112 20.196 116.485 20.7087 116.046 21.3271C115.606 21.9456 115.387 22.7106 115.387 23.6221C115.387 24.4684 115.639 25.2008 116.144 25.8193C116.648 26.4215 117.348 26.8936 118.243 27.2354C118.748 27.4469 119.269 27.6016 119.806 27.6992C120.359 27.7806 120.807 27.8213 121.148 27.8213C121.262 27.8213 121.393 27.8213 121.539 27.8213C121.686 27.8213 121.824 27.8213 121.954 27.8213ZM145.025 11.4639C142.991 19.0973 141.054 26.5111 139.215 33.7051C137.376 40.8828 136.244 45.3669 135.821 47.1572L125.079 45.2041L127.301 35.3896C126.975 34.1201 126.121 30.8893 124.737 25.6973C123.37 20.5052 122.084 15.7363 120.88 11.3906L131.817 10.585C132.062 13.3519 132.289 15.6143 132.501 17.3721C132.729 19.1299 132.883 20.554 132.965 21.6445H133.282C133.396 20.0983 133.535 18.3975 133.697 16.542C133.876 14.6702 134.112 12.6764 134.405 10.5605L145.025 11.4639ZM173.414 35.3848L160.055 36.6445C159.918 35.0234 159.723 33.6562 159.469 32.543C159.234 31.4297 158.961 29.8379 158.648 27.7676H158.297C158.004 28.959 157.73 30.3555 157.477 31.957C157.223 33.5586 157.037 35.1113 156.92 36.6152L144.498 35.3555C144.908 33.6172 145.504 31.2344 146.285 28.207C147.086 25.1602 147.73 22.6895 148.219 20.7949V20.6484C147.652 18.4414 147.066 16.2832 146.461 14.1738C145.875 12.0645 145.123 9.50586 144.205 6.49805L157.125 5.32617C157.418 6.36133 157.652 7.79688 157.828 9.63281C158.023 11.4492 158.229 12.9434 158.443 14.1152H158.795C158.99 13.0215 159.176 11.6055 159.352 9.86719C159.527 8.12891 159.781 6.60547 160.113 5.29688L172.77 6.58594C171.969 9.51562 171.266 12.1719 170.66 14.5547C170.055 16.9375 169.605 18.7539 169.312 20.0039V20.1504C169.859 22.1816 170.543 24.6816 171.363 27.6504C172.184 30.6191 172.867 33.1973 173.414 35.3848Z" fill="white"/>
</svg>
